<svg xmlns="http://www.w3.org/2000/svg" viewBox="100 70 200 220">

<defs>
<!-- (kept your defs exactly the same) -->
</defs>

<!-- ✅ KEEP ONLY ONE BACKGROUND (optional but cleaner) -->
<rect width="100%" height="100%" fill="#000000"/>

<!-- 🔽 EVERYTHING BELOW IS YOUR ORIGINAL CONTENT (unchanged except removed extra giant background rectangles) -->

<g clip-path="url(#87a064bedf)">
  <path fill="#000000" d="M 220.019531 185.222656 L 599.898438 185.222656 L 599.898438 297.78125 L 220.019531 297.78125 Z"/>
</g>

<g clip-path="url(#4cdc713abd)">
  <path fill="#000000" d="M 138.5 38.503906 L 628.121094 38.503906 L 628.121094 94.785156 L 138.5 94.785156 Z"/>
</g>

<g clip-path="url(#7fe56859fc)">
  <path fill="#000000" d="M 68.390625 34.648438 L 299.128906 34.648438 L 299.128906 259.761719 L 68.390625 259.761719 Z"/>
</g>

<!-- White center piece -->
<path fill="#ffffff" d="M 174.503906 214.152344 L 223.398438 167.566406 L 227.28125 171.640625 L 178.386719 218.226562 Z"/>

<!-- Orange bar -->
<path fill="#df5500" d="M 236.421875 115.222656 L 264.558594 115.222656 L 264.558594 241.851562 L 236.421875 241.851562 Z"/>

<!-- White angled lines -->
<path fill="#ffffff" d="M 240.246094 102.449219 L 262.375 114.765625 L 191.214844 242.621094 L 169.085938 230.304688 Z"/>

<path fill="#ffffff" d="M 127.425781 125.171875 L 149.644531 113.015625 L 202.320312 209.289062 L 180.101562 221.445312 Z"/>

<!-- Left white bar -->
<path fill="#ffffff" d="M 124.023438 115.222656 L 149.351562 115.222656 L 149.351562 241.851562 L 124.023438 241.851562 Z"/>

<!-- Bottom shapes -->
<path fill="#000000" d="M 227.234375 302.339844 L 212.59375 310.75 L 156.527344 213.152344 L 171.167969 204.742188 Z"/>

<path fill="#000000" d="M 179.84375 287.070312 L 174.839844 284.492188 L 226.371094 184.425781 L 231.375 187.003906 Z"/>

<!-- Dot -->
<circle cx="247.9" cy="95.3" r="10" fill="#df5500"/>

</svg>